<svg xmlns="http://www.w3.org/2000/svg" fill="none" viewBox="0 0 28 28">
<g clip-path="url(#clip0_324_1287)">
<path d="M0.575317 28.0003H10.0685C14.57 28.0003 18.2192 24.3511 18.2192 19.8496H8.726C4.2245 19.8496 0.575317 23.4988 0.575317 28.0003Z" fill="#007DFC"/>
<path d="M1 8.15069V20.137C5.5015 20.137 9.15069 16.4878 9.15069 11.9863V0C4.64919 0 1 3.64919 1 8.15069Z" fill="#007DFC"/>
<path d="M27.4246 0H17.9314C13.4299 0 9.78076 3.64919 9.78076 8.15068H19.2739C23.7754 8.15068 27.4246 4.5015 27.4246 0Z" fill="#007DFC"/>
<path d="M27.4246 19.3701V7.38379C22.9231 7.38379 19.2739 11.033 19.2739 15.5345V27.5208C23.7754 27.5208 27.4246 23.8716 27.4246 19.3701Z" fill="#007DFC"/>
</g>
<defs>
<clipPath id="clip0_324_1287">
<rect width="28" height="28" fill="white"/>
</clipPath>
</defs>
</svg>